<?xml version="1.0" encoding="UTF-8"?>
<svg id="Layer_2" data-name="Layer 2" xmlns="http://www.w3.org/2000/svg" viewBox="0 0 204.71 244.92">
  <defs>
    <style>
      .cls-1 {
        fill: #f8f8f8;
      }
    </style>
  </defs>
  <g id="Layer_1-2" data-name="Layer 1">
    <g>
      <path class="cls-1" d="m61.97,108.76v9.17c-16.4,1.05-32.88,1.98-48.73,7.73,2.79,3.42,9,5.1,12.85,4.2,4.52-1.05,9.13-1.86,13.75-2.34,11.03-1.15,22.08-2.04,33.04-3.03-3.66-10.38-2.27-17.07,4.71-21.9,5.99-4.14,13.92-3.73,19.79,1.41,4.76,4.16,8.12,11.15,3.08,20.71.51.06.95.15,1.39.16,15.45.09,30.72,1.69,45.84,4.99,3.93.86,7.6-1.43,11.43-3.71-15.47-6.16-31.45-6.44-47.06-7.77-.21-3.07-.43-6.11-.66-9.42,5.34.37,10.86.52,16.32,1.17,7.63.91,15.29,1.85,22.8,3.44,4.82,1.03,9.48,3.06,14.05,5.02,3.82,1.64,5.45,4.95,5.27,9.11-.04.98,0,1.96,0,3.19,4.49,0,8.86.1,13.22-.03,3.57-.11,6.86.79,10.01,2.28,7.36,3.48,11.05,9.63,11.57,17.47,1.32,19.98-11.57,37.35-31.18,41.6-5.43,1.18-11.25.72-16.88.73-1.99,0-3.11.5-4.22,2.21-4.12,6.32-9.26,11.77-15.11,16.69,5.1.96,10.17,1.63,15.08,2.93,4.39,1.17,8.68,2.84,12.85,4.68,2.3,1.01,4.38,2.71,4.67,5.61.29,2.91-1.64,4.58-3.66,6.03-5.02,3.59-10.83,5.4-16.7,6.95-9.84,2.6-19.86,4.13-29.98,5.18-13.48,1.4-26.99,1.97-40.52,1.6-19.94-.55-39.8-1.97-59.09-7.64-5.01-1.47-9.92-3.24-14.21-6.37-4.58-3.35-4.55-7.36.15-10.57,4.88-3.34,10.5-4.74,16.16-5.93,4.34-.92,8.75-1.54,12.15-2.13-2.42-2.73-5.22-5.95-8.08-9.11-10.19-11.31-16.63-24.55-20.41-39.2-3.04-11.78-3.88-23.82-4.21-35.91-.13-4.86,2.06-8.19,6.42-10.25,6.37-3.01,13.11-4.89,20.02-5.77,10.64-1.36,21.36-2.14,32.05-3.15.69-.07,1.4,0,2.06,0Zm-50.35,27.86c0,.83-.08,1.52.01,2.2.82,6.23,1.28,12.53,2.57,18.66,3.79,18.07,11.94,33.8,26.46,45.61,17.93,14.59,38.46,19.58,60.99,14.69,22.34-4.86,38.23-18.39,48.59-38.56,6.84-13.31,9.18-27.73,10.09-42.63-9.1,4.02-18.74,5.85-28.45,6.86-12.38,1.29-24.83,2.21-37.26,2.59-18.26.56-36.53.25-54.68-2.38-9.62-1.4-19.27-2.62-28.31-7.04Zm148.54,44.32c3.69-.27,6.96-.16,10.09-.79,13.07-2.62,22.74-13.95,21.71-27.7-.32-4.22-3.2-8.44-6.79-8.7-5.04-.38-10.13-.1-15.26-.1-1.07,12.79-3.77,25.16-9.75,37.28Zm-111.65,40.19c1.49,1.41,2.82,3.05,4.49,4.19,7.85,5.36,16.94,6.68,26.1,7.62,7.43.77,14.85.28,22.22-.84,6.61-1,13.02-2.64,18.41-6.88,1.35-1.06,2.41-2.47,3.61-3.73-25.15,11.28-49.86,11.16-74.82-.36Z"/>
      <path class="cls-1" d="m84.04,0c32.84.71,59.68,10.68,83.16,29.77,1.97,1.6,3.84,3.37,5.56,5.23,2.01,2.17,1.86,3.51-.23,5.64-2.38,2.43-4.79,4.83-7.13,7.3-3.01,3.16-4.7,3.14-8.11.34-5.13-4.21-10.15-8.62-15.66-12.27-12.82-8.49-26.99-13.88-42.25-15.6-28.48-3.2-54.14,4.1-76.61,22.06-2.32,1.85-4.33,4.07-6.55,6.05-2.87,2.57-4.29,2.5-7.01-.22-2.56-2.55-5.15-5.08-7.67-7.66-1.87-1.92-2.14-3.28-.24-5.13,4-3.88,8.09-7.72,12.5-11.11C29.01,12.73,46.22,5.42,65.06,2.12c7.07-1.24,14.3-1.62,18.98-2.12Z"/>
      <path class="cls-1" d="m150.19,61.62c-.73,1.1-1.21,2.13-1.96,2.91-2.64,2.76-5.37,5.45-8.08,8.14-2.17,2.16-3.78,2.28-6.06.18-5.22-4.82-10.77-9.14-17.14-12.38-23.62-12.01-52.37-8.78-72.69,8.22-1.57,1.32-3.01,2.8-4.59,4.1-1.86,1.53-3.58,1.49-5.3-.17-3.11-3-6.18-6.05-9.2-9.13-1.59-1.63-1.42-2.99.55-4.89,8.64-8.35,18.5-14.82,29.74-19.12,12.67-4.85,25.82-6.73,39.31-5.51,19.64,1.78,36.67,9.65,51.32,22.78.69.61,1.51,1.1,2.09,1.8.73.89,1.28,1.93,2.01,3.07Z"/>
      <path class="cls-1" d="m86.96,67.08c12.92-.06,24.08,4.64,34.01,12.62,1.16.93,2.35,1.82,3.43,2.84,1.95,1.85,2.04,3.62.19,5.53-3.06,3.15-6.16,6.26-9.32,9.3-1.8,1.73-4.13,1.46-6.31-.84-3.31-3.49-6.97-6.43-11.6-7.92-11.7-3.76-22.28-2.16-31.31,6.66-4.68,4.57-5.52,4.5-9.96-.36-1.91-2.09-4.05-3.96-6.05-5.97-2.48-2.49-2.56-4.01-.02-6.46,8.63-8.34,18.78-13.62,30.81-15.02,1.05-.12,2.1-.3,3.16-.37.99-.06,1.98-.01,2.97-.01Z"/>
    </g>
  </g>
</svg>